<svg xmlns="http://www.w3.org/2000/svg" xmlns:xlink="http://www.w3.org/1999/xlink" viewBox="0 0 4234 4234" width="4234" height="4234" preserveAspectRatio="xMidYMid meet" style="width: 100%; height: 100%; transform: translate3d(0px, 0px, 0px); content-visibility: visible;" id="Sent Mail"><defs><clipPath id="__lottie_element_4664"><rect width="4234" height="4234" x="0" y="0"/></clipPath></defs><g clip-path="url(#__lottie_element_4664)"><g transform="matrix(0,0,0,0,1890,2556)" opacity="1" style="display: block;"><g opacity="1" transform="matrix(1,0,0,1,-129,439)"><path fill="rgb(227,81,2)" fill-opacity="1" d=" M508,-396 C508,-396 508,396 508,396 C508,396 -508,396 -508,396 C-508,396 -508,-396 -508,-396 C-508,-396 508,-396 508,-396z"/><path stroke-linecap="butt" stroke-linejoin="miter" fill-opacity="0" stroke-miterlimit="4" stroke="rgb(0,0,0)" stroke-opacity="1" stroke-width="13" d=" M508,-396 C508,-396 508,396 508,396 C508,396 -508,396 -508,396 C-508,396 -508,-396 -508,-396 C-508,-396 508,-396 508,-396z"/></g></g><g transform="matrix(1,0,0,1,2117,2117)" opacity="1" style="display: block;"><g opacity="1" transform="matrix(1,0,0,1,-10,88)"><path fill="rgb(242,175,16)" fill-opacity="1" d=" M446,-252 C446,-252 446,252 446,252 C446,252 -446,252 -446,252 C-446,252 -446,-252 -446,-252 C-446,-252 446,-252 446,-252z"/><path stroke-linecap="butt" stroke-linejoin="miter" fill-opacity="0" stroke-miterlimit="4" stroke="rgb(0,0,0)" stroke-opacity="1" stroke-width="10" d=" M446,-252 C446,-252 446,252 446,252 C446,252 -446,252 -446,252 C-446,252 -446,-252 -446,-252 C-446,-252 446,-252 446,-252z"/></g><g opacity="1" transform="matrix(1,0,0,1,0,0)"><path fill="rgb(242,175,16)" fill-opacity="1" d=" M434,-166 C434,-166 -454,-164 -454,-164 C-454,-164 -18,118 -18,118 C-18,118 434,-166 434,-166z"/><path stroke-linecap="butt" stroke-linejoin="miter" fill-opacity="0" stroke-miterlimit="4" stroke="rgb(0,0,0)" stroke-opacity="1" stroke-width="10" d=" M434,-166 C434,-166 -454,-164 -454,-164 C-454,-164 -18,118 -18,118 C-18,118 434,-166 434,-166z"/></g></g><g transform="matrix(0,0,0,0,1890,2556)" opacity="1" style="display: block;"><g opacity="1" transform="matrix(1,0,0,1,0,0)"><path fill="rgb(227,81,2)" fill-opacity="1" d=" M-457,347 C-457,347 -457,727 -457,727 C-457,727 211,719 211,719 C211,719 211,339 211,339 C211,339 -457,347 -457,347z"/></g><g opacity="1" transform="matrix(1,0,0,1,0,0)"><path fill="rgb(227,81,2)" fill-opacity="1" d=" M-453,363 C-453,363 -453,191 -453,191 C-453,191 -281,191 -281,191 C-281,191 19,195 19,195 C19,195 207,195 207,195 C207,195 207,375 207,375"/><path stroke-linecap="butt" stroke-linejoin="miter" fill-opacity="0" stroke-miterlimit="4" stroke="rgb(255,255,255)" stroke-opacity="1" stroke-width="33" d=" M-453,363 C-453,363 -453,191 -453,191 C-453,191 -281,191 -281,191 C-281,191 19,195 19,195 C19,195 207,195 207,195 C207,195 207,375 207,375"/></g><g opacity="1" transform="matrix(1,0,0,1,-128.5,471.5)"><path fill="rgb(0,226,26)" fill-opacity="1" d=" M0,0 C0,0 0,0 0,0 C0,0 0,0 0,0 C0,0 0,0 0,0 C0,0 0,0 0,0z"/></g><g opacity="1" transform="matrix(0.6460199952125549,0,0,0.7620400190353394,-42.5,102.5)"><path stroke-linecap="butt" stroke-linejoin="miter" fill-opacity="0" stroke-miterlimit="4" stroke="rgb(255,255,255)" stroke-opacity="1" stroke-width="65" d="M0 0"/></g></g></g></svg>